<svg width="91" height="16" viewBox="0 0 91 16" fill="none" xmlns="http://www.w3.org/2000/svg">
<path d="M9.224 1.44V12H7.192L3.112 5.344L2.088 3.472H2.072L2.136 5.184V12H0.568V1.44H2.584L6.648 8.08L7.688 9.984H7.704L7.64 8.256V1.44H9.224ZM13.1232 2.656C12.7499 2.656 12.4619 2.56533 12.2592 2.384C12.0672 2.192 11.9712 1.92533 11.9712 1.584C11.9712 1.24267 12.0672 0.981333 12.2592 0.799999C12.4619 0.618666 12.7499 0.528 13.1232 0.528C13.4859 0.528 13.7632 0.618666 13.9552 0.799999C14.1579 0.981333 14.2592 1.24267 14.2592 1.584C14.2592 1.92533 14.1579 2.192 13.9552 2.384C13.7632 2.56533 13.4859 2.656 13.1232 2.656ZM13.9712 4V12H12.2592V4H13.9712ZM23.8399 2.32L24.1119 3.664C24.0799 3.664 24.0479 3.664 24.0159 3.664C23.9839 3.65333 23.9519 3.648 23.9199 3.648C23.4079 3.648 23.0185 3.76 22.7519 3.984C22.4852 4.19733 22.3519 4.512 22.3519 4.928L21.5199 4.544C21.5199 4.11733 21.6105 3.73867 21.7919 3.408C21.9732 3.06667 22.2292 2.8 22.5599 2.608C22.9012 2.416 23.2852 2.32 23.7119 2.32C23.7332 2.32 23.7545 2.32 23.7759 2.32C23.7972 2.32 23.8185 2.32 23.8399 2.32ZM21.3119 10.752C22.1225 10.752 22.7519 10.9333 23.1999 11.296C23.6479 11.648 23.8719 12.1387 23.8719 12.768C23.8719 13.3227 23.6959 13.7973 23.3439 14.192C22.9919 14.5973 22.5119 14.9067 21.9039 15.12C21.3065 15.3333 20.6185 15.44 19.8399 15.44C18.5279 15.44 17.5572 15.2373 16.9279 14.832C16.2985 14.4267 15.9839 13.92 15.9839 13.312C15.9839 12.8853 16.1332 12.512 16.4319 12.192C16.7412 11.872 17.2585 11.6907 17.9839 11.648L17.8879 11.904C17.4399 11.808 17.0772 11.6373 16.7999 11.392C16.5332 11.136 16.3999 10.7787 16.3999 10.32C16.3999 9.86133 16.5759 9.472 16.9279 9.152C17.2799 8.832 17.7759 8.64533 18.4159 8.592L19.3119 9.024H19.1199C18.6292 9.06667 18.2825 9.17867 18.0799 9.36C17.8772 9.54133 17.7759 9.744 17.7759 9.968C17.7759 10.2347 17.8719 10.432 18.0639 10.56C18.2665 10.688 18.5492 10.752 18.9119 10.752H21.3119ZM19.8399 14.16C20.4265 14.16 20.9065 14.1013 21.2799 13.984C21.6639 13.8773 21.9465 13.7333 22.1279 13.552C22.3199 13.3813 22.4159 13.1893 22.4159 12.976C22.4159 12.7307 22.3145 12.5333 22.1119 12.384C21.9199 12.2347 21.5679 12.16 21.0559 12.16H18.4799C18.1812 12.16 17.9305 12.2347 17.7279 12.384C17.5252 12.544 17.4239 12.7573 17.4239 13.024C17.4239 13.376 17.6372 13.6533 18.0639 13.856C18.4905 14.0587 19.0825 14.16 19.8399 14.16ZM19.7759 3.84C20.4799 3.84 21.0879 3.952 21.5999 4.176C22.1225 4.4 22.5225 4.71467 22.7999 5.12C23.0879 5.52533 23.2319 6 23.2319 6.544C23.2319 7.088 23.0879 7.56267 22.7999 7.968C22.5225 8.37333 22.1225 8.688 21.5999 8.912C21.0879 9.136 20.4799 9.248 19.7759 9.248C18.6665 9.248 17.8132 9.00267 17.2159 8.512C16.6292 8.01067 16.3359 7.35467 16.3359 6.544C16.3359 6 16.4799 5.52533 16.7679 5.12C17.0559 4.71467 17.4559 4.4 17.9679 4.176C18.4905 3.952 19.0932 3.84 19.7759 3.84ZM19.7759 5.04C19.2852 5.04 18.8745 5.17867 18.5439 5.456C18.2239 5.72267 18.0639 6.08533 18.0639 6.544C18.0639 7.00267 18.2239 7.37067 18.5439 7.648C18.8745 7.92533 19.2852 8.064 19.7759 8.064C20.2772 8.064 20.6879 7.92533 21.0079 7.648C21.3385 7.37067 21.5039 7.00267 21.5039 6.544C21.5039 6.08533 21.3385 5.72267 21.0079 5.456C20.6879 5.17867 20.2772 5.04 19.7759 5.04ZM25.5905 12V0.4H27.3025V5.28C27.5692 4.77867 27.9265 4.416 28.3745 4.192C28.8332 3.95733 29.3398 3.84 29.8945 3.84C30.4598 3.84 30.9665 3.952 31.4145 4.176C31.8732 4.38933 32.2358 4.71467 32.5025 5.152C32.7692 5.58933 32.9025 6.144 32.9025 6.816V12H31.1905V7.36C31.1905 6.57067 31.0252 6.02133 30.6945 5.712C30.3745 5.40267 29.9692 5.248 29.4785 5.248C29.1372 5.248 28.7958 5.33333 28.4545 5.504C28.1238 5.664 27.8465 5.93067 27.6225 6.304C27.4092 6.66667 27.3025 7.15733 27.3025 7.776V12H25.5905ZM37.889 1.648V9.6C37.889 9.99467 37.9903 10.2827 38.193 10.464C38.4063 10.6453 38.689 10.736 39.041 10.736C39.329 10.736 39.5797 10.6933 39.793 10.608C40.0063 10.512 40.2037 10.384 40.385 10.224L40.769 11.472C40.5237 11.6853 40.2197 11.856 39.857 11.984C39.505 12.1013 39.1103 12.16 38.673 12.16C38.2143 12.16 37.793 12.0853 37.409 11.936C37.025 11.7867 36.7263 11.5467 36.513 11.216C36.2997 10.8747 36.1877 10.432 36.177 9.888V2.128L37.889 1.648ZM40.641 4V5.344H34.641V4H40.641Z" fill="#E6E1E5"/>
<path d="M42.7243 12V1.44H46.8843C48.1536 1.44 49.0816 1.696 49.6683 2.208C50.2549 2.72 50.5483 3.42933 50.5483 4.336C50.5483 4.89067 50.3883 5.38667 50.0683 5.824C49.7483 6.25067 49.2789 6.52267 48.6603 6.64V6.656C49.3429 6.76267 49.8709 7.04533 50.2443 7.504C50.6283 7.952 50.8203 8.47467 50.8203 9.072C50.8203 9.97867 50.4896 10.6933 49.8283 11.216C49.1669 11.7387 48.2069 12 46.9483 12H42.7243ZM44.4043 10.576H47.0283C47.7003 10.576 48.2016 10.4373 48.5323 10.16C48.8736 9.88267 49.0443 9.49333 49.0443 8.992C49.0443 8.49067 48.8736 8.10133 48.5323 7.824C48.2016 7.54667 47.7003 7.408 47.0283 7.408H44.4043V10.576ZM44.4043 5.984H46.7563C48.1003 5.984 48.7723 5.46667 48.7723 4.432C48.7723 3.39733 48.1003 2.88 46.7563 2.88H44.4043V5.984ZM54.892 0.4V9.76C54.892 10.1547 54.9613 10.4267 55.1 10.576C55.2387 10.7253 55.468 10.8 55.788 10.8C55.98 10.8 56.14 10.7893 56.268 10.768C56.4067 10.736 56.5773 10.6827 56.78 10.608L56.588 11.888C56.4067 11.9733 56.1987 12.0373 55.964 12.08C55.7293 12.1333 55.4947 12.16 55.26 12.16C54.5453 12.16 54.0173 11.9787 53.676 11.616C53.3453 11.2427 53.18 10.672 53.18 9.904V0.4H54.892ZM61.8344 3.84C62.613 3.84 63.301 4.00533 63.8984 4.336C64.4957 4.66667 64.9597 5.14667 65.2904 5.776C65.6317 6.39467 65.8024 7.136 65.8024 8C65.8024 8.864 65.6317 9.61067 65.2904 10.24C64.9597 10.8587 64.4957 11.3333 63.8984 11.664C63.301 11.9947 62.613 12.16 61.8344 12.16C61.0557 12.16 60.3677 11.9947 59.7704 11.664C59.173 11.3333 58.7037 10.8587 58.3624 10.24C58.021 9.61067 57.8504 8.864 57.8504 8C57.8504 7.136 58.021 6.39467 58.3624 5.776C58.7037 5.14667 59.173 4.66667 59.7704 4.336C60.3677 4.00533 61.0557 3.84 61.8344 3.84ZM61.8344 5.184C61.3544 5.184 60.9437 5.296 60.6024 5.52C60.2717 5.73333 60.0157 6.048 59.8344 6.464C59.653 6.88 59.5624 7.392 59.5624 8C59.5624 8.59733 59.653 9.10933 59.8344 9.536C60.0157 9.952 60.2717 10.272 60.6024 10.496C60.9437 10.7093 61.3544 10.816 61.8344 10.816C62.3144 10.816 62.7197 10.7093 63.0504 10.496C63.381 10.272 63.637 9.952 63.8184 9.536C63.9997 9.10933 64.0904 8.59733 64.0904 8C64.0904 7.392 63.9997 6.88 63.8184 6.464C63.637 6.048 63.381 5.73333 63.0504 5.52C62.7197 5.296 62.3144 5.184 61.8344 5.184ZM71.5781 3.84C72.3568 3.84 73.0448 4.00533 73.6421 4.336C74.2395 4.66667 74.7035 5.14667 75.0341 5.776C75.3755 6.39467 75.5461 7.136 75.5461 8C75.5461 8.864 75.3755 9.61067 75.0341 10.24C74.7035 10.8587 74.2395 11.3333 73.6421 11.664C73.0448 11.9947 72.3568 12.16 71.5781 12.16C70.7995 12.16 70.1115 11.9947 69.5141 11.664C68.9168 11.3333 68.4475 10.8587 68.1061 10.24C67.7648 9.61067 67.5941 8.864 67.5941 8C67.5941 7.136 67.7648 6.39467 68.1061 5.776C68.4475 5.14667 68.9168 4.66667 69.5141 4.336C70.1115 4.00533 70.7995 3.84 71.5781 3.84ZM71.5781 5.184C71.0981 5.184 70.6875 5.296 70.3461 5.52C70.0155 5.73333 69.7595 6.048 69.5781 6.464C69.3968 6.88 69.3061 7.392 69.3061 8C69.3061 8.59733 69.3968 9.10933 69.5781 9.536C69.7595 9.952 70.0155 10.272 70.3461 10.496C70.6875 10.7093 71.0981 10.816 71.5781 10.816C72.0581 10.816 72.4635 10.7093 72.7941 10.496C73.1248 10.272 73.3808 9.952 73.5621 9.536C73.7435 9.10933 73.8341 8.59733 73.8341 8C73.8341 7.392 73.7435 6.88 73.5621 6.464C73.3808 6.048 73.1248 5.73333 72.7941 5.52C72.4635 5.296 72.0581 5.184 71.5781 5.184ZM77.8499 12V4H79.3699L79.4499 5.344C79.7272 4.832 80.0952 4.45333 80.5539 4.208C81.0232 3.96267 81.5192 3.84 82.0419 3.84C82.6179 3.84 83.1459 3.97333 83.6259 4.24C84.1165 4.496 84.4845 4.88533 84.7299 5.408C84.9005 5.056 85.1352 4.76267 85.4339 4.528C85.7325 4.29333 86.0632 4.12267 86.4259 4.016C86.7885 3.89867 87.1459 3.84 87.4979 3.84C88.0099 3.84 88.4899 3.94667 88.9379 4.16C89.3859 4.37333 89.7485 4.69867 90.0259 5.136C90.3032 5.57333 90.4419 6.13333 90.4419 6.816V12H88.7299V7.088C88.7299 6.43733 88.5752 5.968 88.2659 5.68C87.9565 5.392 87.5619 5.248 87.0819 5.248C86.7085 5.248 86.3619 5.33867 86.0419 5.52C85.7325 5.70133 85.4819 5.97333 85.2899 6.336C85.0979 6.688 85.0019 7.12533 85.0019 7.648V12H83.2899V7.088C83.2899 6.43733 83.1352 5.968 82.8259 5.68C82.5165 5.392 82.1219 5.248 81.6419 5.248C81.3219 5.248 81.0019 5.33333 80.6819 5.504C80.3619 5.67467 80.0952 5.94133 79.8819 6.304C79.6685 6.66667 79.5619 7.14667 79.5619 7.744V12H77.8499Z" fill="url(#paint0_linear_53351_63774)"/>
<defs>
<linearGradient id="paint0_linear_53351_63774" x1="92" y1="-5" x2="-1.878" y2="14.847" gradientUnits="userSpaceOnUse">
<stop stop-color="#FF2F22"/>
<stop offset="0.140665" stop-color="#E401A5"/>
<stop offset="1" stop-color="#3B37FF"/>
</linearGradient>
</defs>
</svg>
