<svg width="10" height="12" viewBox="0 0 10 12" fill="none" xmlns="http://www.w3.org/2000/svg">
<path d="M9.55931 6.35208C8.6405 3.96435 5.36909 3.8356 6.15914 0.365209C6.21766 0.107709 5.94261 -0.091268 5.72022 0.0433341C3.59585 1.29572 2.06841 3.80634 3.35005 7.09531C3.45539 7.36452 3.13937 7.61617 2.91113 7.4406C1.85187 6.63884 1.74068 5.48594 1.83432 4.66077C1.86943 4.35645 1.47148 4.21015 1.30176 4.46179C0.903806 5.07043 0.5 6.05361 0.5 7.53423C0.722386 10.8115 3.49051 11.8181 4.48539 11.9468C5.90749 12.1283 7.44664 11.8649 8.55272 10.8525C9.76999 9.72298 10.2148 7.92048 9.55931 6.35208ZM4.1284 9.29577C4.97113 9.09094 5.4042 8.4823 5.52124 7.94389C5.71437 7.10702 4.95943 6.2877 5.46857 4.96509C5.6617 6.05946 7.38227 6.74418 7.38227 7.93804C7.42908 9.41866 5.82556 10.6886 4.1284 9.29577Z" fill="#E6E1E5"/>
</svg>
